<?xml version="1.0" encoding="UTF-8"?>
<svg width="24px" height="24px" viewBox="0 0 24 24" version="1.1" xmlns="http://www.w3.org/2000/svg" xmlns:xlink="http://www.w3.org/1999/xlink">
    <title>8EBC96D9-AC48-4364-8286-E50957EC732D</title>
    <g id="Symbols" stroke="none" stroke-width="1" fill="none" fill-rule="evenodd">
        <g id="Icon/24/Cross" fill="#000000">
            <path d="M1.19621165,0.146051761 L1.28033009,0.218669914 L12,10.938 L22.7196699,0.218669914 C23.0125631,-0.0742233047 23.4874369,-0.0742233047 23.7803301,0.218669914 C24.0465966,0.484936477 24.0708027,0.901600159 23.8529482,1.19521165 L23.7803301,1.27933009 L13.061,11.999 L23.7803301,22.7186699 C24.0732233,23.0115631 24.0732233,23.4864369 23.7803301,23.7793301 C23.5140635,24.0455966 23.0973998,24.0698027 22.8037883,23.8519482 L22.7196699,23.7793301 L12,13.06 L1.28033009,23.7793301 C0.987436867,24.0722233 0.512563133,24.0722233 0.219669914,23.7793301 C-0.0465966484,23.5130635 -0.0708026996,23.0963998 0.147051761,22.8027883 L0.219669914,22.7186699 L10.939,11.999 L0.219669914,1.27933009 C-0.0732233047,0.986436867 -0.0732233047,0.511563133 0.219669914,0.218669914 C0.485936477,-0.0475966484 0.902600159,-0.0718026996 1.19621165,0.146051761 Z" id="*Change-the-color-here*"></path>
        </g>
    </g>
</svg>